<svg xmlns="http://www.w3.org/2000/svg" xmlns:xlink="http://www.w3.org/1999/xlink" version="1.1" id="Camada_1" x="0px" y="0px" viewBox="0 0 850.39 255.12" style="enable-background:new 0 0 850.39 255.12;" xml:space="preserve" width="850.39"  height="255.12" >
<style type="text/css">
	.st0{fill:#ffff;}
</style>
<g>
	<path class="st0" d="M760.79,85.88c8.82,7.97,19.56,11.96,32.2,11.96c12.41,0,23.03-3.99,31.86-11.96   c8.82-7.97,13.24-17.65,13.24-29.04c0-11.27-4.42-20.9-13.24-28.87c-8.83-7.97-19.45-11.96-31.86-11.96   c-12.64,0-23.38,3.99-32.2,11.96c-8.83,7.97-13.24,17.6-13.24,28.87C747.55,68.22,751.97,77.91,760.79,85.88z"/>
	<path class="st0" d="M780.69,215.71l31.6-88.83h-62.01l-29.72,83.19c-0.69,1.93-1.23,3.81-1.62,5.64h-75.25l40.83-107.79   c2.28-5.92,3.42-11.33,3.42-16.23c0-8.54-3.42-15.03-10.25-19.47c-4.44-2.96-8.66-4.44-12.64-4.44   c-10.02-0.11-17.71,1.37-23.06,4.44c-3.07,1.94-9.28,7.58-18.62,16.91l-65.77,66.11l33.14-86.1c2.5-6.26,3.76-11.9,3.76-16.91   c0-8.08-3.13-14.18-9.4-18.28c-4.1-2.62-8.03-3.93-11.79-3.93c-13.21,0-23.98,2.62-32.29,7.86c-5.01,3.19-12.19,10.14-21.52,20.84   l-73.46,83.19l36.73-105.91c2.16-6.26,3.25-11.62,3.25-16.06c0-11.5-7.86-17.25-23.57-17.25H348.32l-2.39,3.98   c-5.9-2.65-12.22-3.98-18.97-3.98h-42.2c-70.72,0-106.09,20.79-106.09,62.35c0,12.76,4.67,30.64,14.01,53.64   c9.34,23.01,14.01,40.66,14.01,52.96c0,17.88-7.35,31.6-22.04,41.17c-12.64,8.31-28.42,12.47-47.32,12.47   c-14.92,0-28.93-2.79-42.02-8.37c-16.97-7.29-25.45-17.37-25.45-30.24c0-11.39,6.15-19.99,18.45-25.8   c9.45-4.44,20.56-6.66,33.31-6.66h50.74l-12.47-27.33H94.81C31.6,126.88,0,145.44,0,182.57c0,25.51,17.14,44.42,51.42,56.72   c24.37,8.77,52.33,13.15,83.88,13.15c34.51,0,64.63-5.75,90.37-17.25c34.51-15.6,51.76-39.01,51.76-70.21   c0-14.58-5.1-34.73-15.29-60.47c-10.19-25.74-15.29-42.31-15.29-49.71c0-14.46,8.65-21.7,25.97-21.7c1.37,0,4.61,0.23,9.74,0.68   c-0.91,4.21-1.37,7.63-1.37,10.25c0,11.27,4.44,20.9,13.32,28.87c8.88,7.97,19.59,11.96,32.12,11.96c12.53,0,23.26-3.99,32.2-11.96   c8.48-7.56,12.93-16.62,13.37-27.16h45.14l-69.02,197.31H383c13.67,0,24.03-4.33,31.09-12.98l105.4-127.27l-42.02,108.48   c-2.05,5.12-3.07,9.91-3.07,14.35c0,11.5,6.49,17.99,19.47,19.47c2.28,0.34,4.44,0.51,6.49,0.51c10.82,0,20.78-5.07,29.9-15.2   l84.73-92.93l-28.36,73.8c-2.39,6.26-3.59,11.33-3.59,15.2c0,11.05,9.57,16.57,28.7,16.57h61.33c23.43,0,38.47-6.93,45.11-20.78   c0,0.09-0.01,0.19-0.01,0.28c0,13.67,8.14,20.5,24.43,20.5h67.48c7.86,0,15.14-1.71,21.87-5.12c9.34-4.78,15.49-12.18,18.45-22.21   H780.69z"/>
</g>
</svg>